<!DOCTYPE svg PUBLIC "-//W3C//DTD SVG 1.0//EN" "http://www.w3.org/TR/2001/REC-SVG-20010904/DTD/svg10.dtd"><svg xmlns="http://www.w3.org/2000/svg" xmlns:xlink="http://www.w3.org/1999/xlink" viewBox="0 0 1 1"><g class="puzzle-icon-fill" fill="#d5d5d5"><rect fill="inherit" x="0.000000" y="0.000000" width="0.150165" height="0.150165" /><rect fill="inherit" x="0.000000" y="0.169967" width="0.150165" height="0.150165" /><rect fill="inherit" x="0.000000" y="0.339934" width="0.150165" height="0.150165" /><rect fill="inherit" x="0.000000" y="0.509901" width="0.150165" height="0.150165" /><rect fill="inherit" x="0.000000" y="0.679868" width="0.150165" height="0.150165" /><rect fill="inherit" x="0.000000" y="0.849835" width="0.150165" height="0.150165" /><rect fill="inherit" x="0.169967" y="0.000000" width="0.150165" height="0.150165" /><rect fill="inherit" x="0.169967" y="0.169967" width="0.150165" height="0.150165" /><rect fill="inherit" x="0.169967" y="0.339934" width="0.150165" height="0.150165" /><rect fill="inherit" x="0.169967" y="0.509901" width="0.150165" height="0.150165" /><rect fill="inherit" x="0.169967" y="0.679868" width="0.150165" height="0.150165" /><rect fill="inherit" x="0.169967" y="0.849835" width="0.150165" height="0.150165" /><rect fill="inherit" x="0.339934" y="0.000000" width="0.150165" height="0.150165" /><rect fill="inherit" x="0.339934" y="0.169967" width="0.150165" height="0.150165" /><rect fill="inherit" x="0.339934" y="0.339934" width="0.150165" height="0.150165" /><rect fill="inherit" x="0.339934" y="0.509901" width="0.150165" height="0.150165" /><rect fill="inherit" x="0.339934" y="0.679868" width="0.150165" height="0.150165" /><rect fill="inherit" x="0.339934" y="0.849835" width="0.150165" height="0.150165" /><rect fill="inherit" x="0.509901" y="0.000000" width="0.150165" height="0.150165" /><rect fill="inherit" x="0.509901" y="0.169967" width="0.150165" height="0.150165" /><rect fill="inherit" x="0.509901" y="0.339934" width="0.150165" height="0.150165" /><rect fill="inherit" x="0.509901" y="0.509901" width="0.150165" height="0.150165" /><rect fill="inherit" x="0.509901" y="0.679868" width="0.150165" height="0.150165" /><rect fill="inherit" x="0.509901" y="0.849835" width="0.150165" height="0.150165" /><rect fill="inherit" x="0.679868" y="0.000000" width="0.150165" height="0.150165" /><rect fill="inherit" x="0.679868" y="0.169967" width="0.150165" height="0.150165" /><rect fill="inherit" x="0.679868" y="0.339934" width="0.150165" height="0.150165" /><rect fill="inherit" x="0.679868" y="0.509901" width="0.150165" height="0.150165" /><rect fill="inherit" x="0.679868" y="0.679868" width="0.150165" height="0.150165" /><rect fill="inherit" x="0.679868" y="0.849835" width="0.150165" height="0.150165" /><rect fill="inherit" x="0.849835" y="0.000000" width="0.150165" height="0.150165" /><rect fill="inherit" x="0.849835" y="0.169967" width="0.150165" height="0.150165" /><rect fill="inherit" x="0.849835" y="0.339934" width="0.150165" height="0.150165" /><rect fill="inherit" x="0.849835" y="0.509901" width="0.150165" height="0.150165" /><rect fill="inherit" x="0.849835" y="0.679868" width="0.150165" height="0.150165" /><rect fill="inherit" x="0.849835" y="0.849835" width="0.150165" height="0.150165" /></g></svg>