<?xml version="1.0" encoding="utf-8"?>
<!DOCTYPE svg PUBLIC "-//W3C//DTD SVG 1.1//EN" "http://www.w3.org/Graphics/SVG/1.1/DTD/svg11.dtd">
<svg version="1.1" xmlns="http://www.w3.org/2000/svg" xmlns:xlink="http://www.w3.org/1999/xlink" viewBox="5.638890049964313 126.67285326151428 988.0975071310066 746.6771467384856" xml:space="preserve">
<path class="puzzle-icon-fill" fill="#d5d5d5" d="M987.3,599.3c14.9-167.8-95.1-252.5-222.8-314.9c5.9-5.9,14.9-11.9,20.8-16.3c29.7-23.8,63.9-50.5,56.4-83.2
	c-7.4-31.2-49-43.1-84.7-50.5c-112.9-22.3-185.7,7.4-268.8,41.6c-55,22.3-118.8,49-203.5,60.9c-81.7,13.4-151.5,56.4-202,124.8
	C35.2,427,11.5,510.2,12.9,596.3c-19.3,72.8,0,154.5,56.4,212.4c86.2,86.2,225.8,86.2,310.4,0c25.3-25.3,78.7-46,118.8-46
	c46,0,93.6,19.3,118.8,46c86.2,86.2,225.8,86.2,310.4,0C985.9,750.8,1005.2,672.1,987.3,599.3z M929.4,496.8
	c-84.7-84.7-222.8-130.7-430.8-130.7c-225.8,0-343.1,43.1-430.8,130.7c-1.5,1.5-1.5,1.5-3,3c10.4-41.6,26.7-78.7,52-112.9
	c43.1-59.4,102.5-96.5,172.3-106.9c90.6-13.4,156-40.1,213.9-63.9c80.2-32.7,144.1-59.4,243.6-38.6c37.1,7.4,47.5,16.3,50.5,17.8
	c-3,8.9-28.2,28.2-40.1,38.6c-26.7,20.8-47.5,37.1-44.6,59.4c0,5.9,4.5,19.3,20.8,26.7c115.9,55,181.2,112.9,203.5,185.7
	C933.9,501.3,930.9,498.3,929.4,496.8z"/>
</svg>
