<?xml version="1.0" encoding="utf-8"?>
<!DOCTYPE svg PUBLIC "-//W3C//DTD SVG 1.1//EN" "http://www.w3.org/Graphics/SVG/1.1/DTD/svg11.dtd">
<svg version="1.1" xmlns="http://www.w3.org/2000/svg" xmlns:xlink="http://www.w3.org/1999/xlink" viewBox="2.5 -206.50000000000006 995.4 995.3" xml:space="preserve">
	<path class="puzzle-icon-fill" fill="#d5d5d5" d="M466.7,788.8c-85.8-5.8-165.8-33.2-234.5-76.9c-4.1,0.3-8.5,0.7-13,0.7c-77.6,0-140.5-62.9-140.5-140.5
		c0-4.4,0.3-8.5,0.7-13C35.7,490.8,8.3,410.8,2.5,325c1,0,2.4,0,3.4,0c18.8,0,33.8-15,33.8-33.8s-15-33.8-33.8-33.8
		c-1.4,0-2.4,0-3.4,0.3C8.3,171.9,35.7,91.9,79.4,23.2c-0.3-4.1-0.7-8.5-0.7-13c0-77.6,62.9-140.5,140.5-140.5c4.4,0,8.5,0.3,13,0.7
		c68.7-43.7,148.7-71.1,234.5-76.9c0,1-0.3,2.4-0.3,3.8c0,18.8,15,33.8,33.8,33.8c18.8,0,33.8-15.4,33.8-33.8c0-1.4,0-2.4-0.3-3.8
		c85.8,5.8,165.8,33.2,234.5,76.9c4.1-0.3,8.5-0.7,13-0.7c77.6,0,140.5,62.9,140.5,140.5c0,4.4-0.3,8.5-0.7,13
		c43.7,68.7,71.1,148.3,76.9,234.5c-1.4,0-2.4-0.3-3.8-0.3c-18.8,0-33.8,15-33.8,33.8s15,33.8,33.8,33.8c1.4,0,2.4,0,3.8,0
		c-5.8,85.8-33.2,165.8-76.9,234.1c0.3,4.4,0.7,8.5,0.7,13c0,77.6-62.9,140.5-140.5,140.5c-4.4,0-8.5-0.3-13-0.7
		c-68.7,43.7-148.3,71.1-234.5,76.9c0-1,0.3-2.4,0.3-3.8c0-18.8-15-33.8-33.8-33.8c-18.8,0-33.8,15-33.8,33.8
		C466.3,786.4,466.3,787.8,466.7,788.8L466.7,788.8z M219.9,683.5c61.5,0,111.4-49.9,111.4-111.4s-49.9-111.4-111.4-111.4
		s-111.4,49.9-111.4,111.4S158.4,683.5,219.9,683.5z M500.2,683.5c61.5,0,111.4-49.9,111.4-111.4s-49.9-111.4-111.4-111.4
		s-111.4,49.9-111.4,111.4S438.6,683.5,500.2,683.5z M781.1,683.5c61.5,0,111.4-49.9,111.4-111.4s-49.9-111.4-111.4-111.4
		s-111.4,49.9-111.4,111.4S719.6,683.5,781.1,683.5z M219.2,402.6c61.5,0,111.4-49.9,111.4-111.4s-49.9-111.4-111.4-111.4
		s-111.4,49.9-111.4,111.4C107.8,352.7,157.7,402.6,219.2,402.6L219.2,402.6z M500.2,402.6c61.5,0,111.4-49.9,111.4-111.4
		s-49.9-111.4-111.4-111.4s-111.4,49.9-111.4,111.4S438.6,402.6,500.2,402.6L500.2,402.6z M781.1,402.6
		c61.5,0,111.4-49.9,111.4-111.4s-49.9-111.4-111.4-111.4s-111.4,49.9-111.4,111.4S719.6,402.6,781.1,402.6z M219.2,121.6
		c61.5,0,111.4-49.9,111.4-111.4s-49.9-111.4-111.4-111.4S107.8-51.3,107.8,10.2C107.8,71.7,157.7,121.6,219.2,121.6L219.2,121.6z
		 M500.2,121.6c61.5,0,111.4-49.9,111.4-111.4s-49.9-111.4-111.4-111.4S388.7-51.3,388.7,10.2S438.6,121.6,500.2,121.6L500.2,121.6z
		 M781.1,121.6c61.5,0,111.4-49.9,111.4-111.4s-49.9-111.4-111.4-111.4S669.7-51.3,669.7,10.2S719.6,121.6,781.1,121.6L781.1,121.6z
		"/>
</svg>
