<?xml version="1.0" encoding="utf-8"?>
<svg version="1.1" xmlns="http://www.w3.org/2000/svg" xmlns:xlink="http://www.w3.org/1999/xlink"
     viewBox="103.98759947066034 12.943301209642833 491.8124005293397 680.2566987903571">
  <g class="puzzle-icon-fill" fill="#d5d5d5">
    <path d="M124.4,274.2c0,0,8-36.8,33.9-90.6c0,0,130,21.5,193.9,1.5c0,0,9.2,6.8,16.9-1.5
	c0,0,7.6-7.9-1.7-17.6c0,0-12.9-7.9-19.2,6c0,0-46.1,16.9-184.1-1.7c0,0,45.5-85.6,85.6-115.2c0,0,39.2-35.4,88.6-41.6
	c0,0,61.1-9.2,118.1,47.2c0,0,83.6,78.3,111.5,191.2c0,0,25.7,74,27.9,150.9c0,0-73,18.7-224.3,7.2c0.1-25.4,0.2-50.1,0.2-71.4
	c53.2,8.1,103.9,7.6,156.2-9.7c0.3-28.2-0.8-53.8-5.7-75c3.1-3.8,4.3-8,1.9-12.9c-3-5.7-7.6-8.8-15.7-5.9c-5.1,1.9-7.9,6-7.2,13.9
	c0.4,2.9,2.4,5.7,7.6,8.4c1-0.8,7.5,46.9,5.1,61.2c-42.9,12-90.4,15.3-137.8,6.4c-4.2-9.2-10.4-13.1-21-5.7c-2.5,3.2-3.8,6.7-3,10.6
	c0.8,3.4,2.5,5.9,5.1,7.7c0-0.8,0,84,0.5,85c0.2,0.5,137.7,13.3,237.9-5.1c0,0,0.9,69-8.3,88.9c-4.4,36.6-25.6,73.2-52.1,109.8
	c-46.2,49.9-104.4,75.9-175.3,77c-62.3-1-116.8-13.3-158.6-44.1c-22.9-15.9-42-35.4-56.4-59.4c101.8,18.6,194.8,22.7,276.9,1.2
	c7.3,3.6,12.9,2.2,17.2-3c3-4.9,2.9-9.6-0.2-14.3c-3.6-4.6-8.5-6.5-15.5-3.6c-2.7,1.6-5,3.8-6.1,7.7c-86.8,22-180.9,20.3-282.1-4.3
	c-16.6-32.5-26.2-75-31.1-124.2c-0.2-44.6,2-84.8,8-117.7c0,0,6.5-38.4,8.7-42.9c45.9,4.2,90.5,3,134.6-1c7.2,49,5,122-1.3,205.8
	c-4.6,1.3-8.4,6.2-8.5,9.9c-0.1,4.2,0.5,8.2,4,11.1c5.1,3.4,10.2,4.2,15.3,0.6c5.9-5.3,6-11,3.2-16.9
	c7.7-117.4,11.1-189.1-3.7-225.5C211.4,277.2,162.3,279.3,124.4,274.2z"/>
  </g>
</svg>
