<?xml version="1.0" encoding="utf-8"?>
<!DOCTYPE svg PUBLIC "-//W3C//DTD SVG 1.1//EN" "http://www.w3.org/Graphics/SVG/1.1/DTD/svg11.dtd">
<svg version="1.1" id="Layer_1" xmlns="http://www.w3.org/2000/svg" xmlns:xlink="http://www.w3.org/1999/xlink" viewBox="58 2 884 996" xml:space="preserve">
<g class="puzzle-icon-fill" fill="#d5d5d5">
	<path d="M743.4,837.1c0,0-85.8-2.1-106.8-91.4c-16-68.6,27.8-107.4,36.4-127.8c8.3-19.7,24-35.4,24-76.8
		s-8.6-79.7-20.7-110c-12.1-30.3-80.7-124.2-83.1-133.1s-29.8-30.6-4.6-89.3c25.7-60,42.6-59.3,62.8-68.3c20.3-9,75-2.9,115.4,19.3
		c40.4,22.1,81.7,45.4,119.2,110.7s20.3,104.3,14.3,134.2c-6,30-31.7,101.7-34.3,112.1c-2.6,10.4-13.1,120.2-13.1,120.2
		s6.6,106.8-7.1,130.2C837.1,781.9,830.5,827.4,743.4,837.1z"/>
	<path d="M257.3,997c0,0,85.8-2.1,106.8-91.4c16-68.6-27.8-107.4-36.4-127.8c-8.3-19.7-24-35.4-24-76.8
		c0-41.4,8.6-79.7,20.7-110c12.1-30.3,80.7-124.2,83.1-133.1c2.4-8.9,29.8-30.6,4.6-89.3c-25.7-60-42.6-59.3-62.8-68.3
		s-75-2.9-115.4,19.3s-81.7,45.3-119.1,110.7s-20.3,104.3-14.3,134.2c6,30,31.7,101.7,34.3,112.1c2.6,10.4,13.1,120.2,13.1,120.2
		s-6.6,106.8,7.1,130.2C163.6,941.9,170.1,987.3,257.3,997z"/>
	
  <ellipse transform="matrix(8.105563e-02 -0.9967 0.9967 8.105563e-02 509.7791 680.0883)" cx="623.7" cy="63.6" rx="60.7" ry="44.3"/>

  <ellipse transform="matrix(8.105563e-02 -0.9967 0.9967 8.105563e-02 591.3133 780.8153)" cx="719.1" cy="69.7" rx="49.1" ry="35.7"/>

  <ellipse transform="matrix(8.105563e-02 -0.9967 0.9967 8.105563e-02 628.2588 890.2769)" cx="796.9" cy="104.4" rx="43.7" ry="33"/>

  <ellipse transform="matrix(8.105563e-02 -0.9967 0.9967 8.105563e-02 638.9122 998.9569)" cx="861.2" cy="153" rx="41.1" ry="31.1"/>

  <ellipse transform="matrix(8.105563e-02 -0.9967 0.9967 8.105563e-02 621.4898 1110.8706)" cx="913.2" cy="218.4" rx="36.4" ry="28.1"/>

  <ellipse transform="matrix(8.105551e-02 0.9967 -0.9967 8.105551e-02 567.2844 -170.8211)" cx="376.3" cy="222.2" rx="60.7" ry="44.3"/>

  <ellipse transform="matrix(8.105551e-02 0.9967 -0.9967 8.105551e-02 485.7484 -70.0922)" cx="280.9" cy="228.4" rx="49.1" ry="35.7"/>

  <ellipse transform="matrix(8.105551e-02 0.9967 -0.9967 8.105551e-02 448.6424 39.369)" cx="203" cy="263" rx="43.7" ry="33"/>

  <ellipse transform="matrix(8.105551e-02 0.9967 -0.9967 8.105551e-02 438.0007 148.0362)" cx="138.7" cy="311.6" rx="41.1" ry="31.1"/>

  <ellipse transform="matrix(8.105551e-02 0.9967 -0.9967 8.105551e-02 455.562 259.9327)" cx="86.8" cy="377" rx="36.4" ry="28.1"/>
</g>
</svg>
