<!DOCTYPE svg PUBLIC "-//W3C//DTD SVG 1.0//EN" "http://www.w3.org/TR/2001/REC-SVG-20010904/DTD/svg10.dtd"><svg xmlns="http://www.w3.org/2000/svg" xmlns:xlink="http://www.w3.org/1999/xlink" viewBox="0 0 1.902113 1.809017"><g class="puzzle-icon-fill" fill="#d5d5d5"><polygon fill="inherit" points="0.570634,0.276393 0.951057,0.000000 1.331479,0.276393 0.951057,0.552786" /><polygon fill="inherit" points="1.521690,0.414590 1.902113,0.690983 1.756805,1.138197 1.376382,0.861803" /><polygon fill="inherit" points="1.684150,1.361803 1.538842,1.809017 1.068614,1.809017 1.213922,1.361803" /><polygon fill="inherit" points="0.833499,1.809017 0.363271,1.809017 0.217963,1.361803 0.688191,1.361803" /><polygon fill="inherit" points="0.145309,1.138197 0.000000,0.690983 0.380423,0.414590 0.525731,0.861803" /><polygon fill="inherit" points="0.991507,0.582176 1.371930,0.305782 1.481240,0.385201 1.335931,0.832414" /><polygon fill="inherit" points="1.360931,0.909356 1.741354,1.185749 1.699601,1.314251 1.229373,1.314251" /><polygon fill="inherit" points="1.163922,1.361803 1.018614,1.809017 0.883499,1.809017 0.738191,1.361803" /><polygon fill="inherit" points="0.672740,1.314251 0.202512,1.314251 0.160759,1.185749 0.541182,0.909356" /><polygon fill="inherit" points="0.566182,0.832414 0.420873,0.385201 0.530183,0.305782 0.910606,0.582176" /><polygon points="     0.951057,0.614590 1.317603,0.880902 1.177595,1.311803 0.724518,1.311803 0.584510,0.880902" /></g></svg>