<?xml version="1.0" encoding="utf-8"?>
<!DOCTYPE svg PUBLIC "-//W3C//DTD SVG 1.1//EN" "http://www.w3.org/Graphics/SVG/1.1/DTD/svg11.dtd">
<svg version="1.1" xmlns="http://www.w3.org/2000/svg" xmlns:xlink="http://www.w3.org/1999/xlink" viewBox="84.6 2.2992266508030936 830.9505911485286 996.6007733491969" xml:space="preserve">
<path class="puzzle-icon-fill" fill="#d5d5d5" d="M330.9,2.5c7.3,2,13.2,5.3,17.9,10c5.3,5.3,12.7,18.3,21.9,38.8
	c9.2,21.2,21.9,58,37.9,110.6s28.1,99,36.8,139.5c0,0,13.3,59,14,60.8c0.5,1.7,3.1,5,5.8,6c3.7,1.4,6.1-2,7.4-4.7
	c0.8-1.7,1-3.5,0.8-5.4l-8.6-58.5c-6-40.5-15.2-85-27.9-133.5c-12-48.6-19.2-81.4-21.9-98.6c-2.7-17.2-2.7-29.2,0-35.9
	c2.7-6.7,8-12.7,15.9-17.9c8-4.7,16.9-5.7,26.9-2.9c10,2.7,18.3,7.3,24.9,14c7.3,7.3,14.9,19.6,22.9,36.8s16.9,42.5,26.9,75.8
	c10,33.2,19.9,73,29.9,119.5c10.7,47.1,16.9,81.6,18.9,103.6c2.7,21.9,2.4,44.7,13.7,70.6c11.2,25.9,22.9,47.5,34.8,64.7
	c12.7,17.9,24.1,32.1,34.8,42.8c11.2,10.7,19.2,15.6,23.9,14.9c4.7-0.7,9.6-4.3,14.9-10.9c6-6,17.9-29.2,35.9-69.8
	c17.9-40.5,32.1-67.1,42.8-79.6c10.7-12.7,21.6-23.2,32.8-31.9c11.2-8.7,22.7-15.2,33.9-19.9c12-4.7,23.6-6.9,34.8-6.9
	s19.6,2,24.9,6c5.3,4.7,7.7,9.2,6.9,14c0,4.7-4.7,15.2-14,31.9c-9.3,16.7-21.9,46.8-37.9,90.7c-15.9,44.5-24.9,71.8-26.9,81.6
	c-1.3,10.7-21.9,145.4-51.8,195.3c-29.2,50.6-51.8,85-67.8,103.6c-15.9,18.7-23.6,36.5-22.9,53.8c8.4,38.8,6.9,79.6,6.9,87.5
	c-91.1,0-238.7,0-298,0c0,0-1.4-11.7-14.6-33.6c-12.7-21.9-29.9-47.5-51.8-76.7c-21.9-28.5-39.5-54.6-52.8-77.8
	c-12.7-22.7-26.1-52.8-40.8-90.7c-14-37.2-24.9-71.8-32.8-103.6c-8-31.2-28.1-80-60.8-146.5c-32.5-65.8-51.5-106.6-56.8-122.6
	c-5.3-15.9-8-27.9-8-35.9c0-7.3,3.3-14.7,10-21.9c6.7-6.7,12.3-10.3,16.9-10.9c4.7-0.7,9.2,0,14,2c5.3,2,29.9,39.5,73.8,112.6
	c0,0,62.7,105.4,65.8,109.6c3.1,4.1,28.5,16.7,20.9-21.9c-5.1-25.7-5.1-25.7,0,0c0-11.2-21.2-69.1-63.8-173.3c0,0-55-125.5-59-143
	s-2.8-25.3-2.8-25.3c1.3-8,4.3-14.3,8.9-18.9c4.7-4,10.9-7.3,18.9-10c8.7-2,15.2-2.3,19.9-0.9c5.3,2,10,4.9,14,8.9
	c4,4.7,8.7,14,14,27.9c6,14.7,23.6,50.8,52.8,108.6c29.2,57.8,47.5,97.6,54.8,119.5c0,0,9.1,28.4,12,32.8
	c2.9,4.4,15.9,15.5,12.9-8c-1.9-15.6-1.9-15.6,0,0c0-7.3-6-35.2-17.9-83.6C340,267.2,325,210.6,306.4,145.5
	c0,0-19.1-64.3-23.1-82.7c-4-18.4-2-31.3-2-31.3c8-17.9,10-20.9,26.1-25.3C323,1,330.9,2.5,330.9,2.5z"/>
</svg>
