<!DOCTYPE svg PUBLIC "-//W3C//DTD SVG 1.0//EN" "http://www.w3.org/TR/2001/REC-SVG-20010904/DTD/svg10.dtd"><svg xmlns="http://www.w3.org/2000/svg" xmlns:xlink="http://www.w3.org/1999/xlink" viewBox="0 0 1 1"><rect x="0.000000" y="0.000000" width="0.176238" height="0.176238" fill="white" /><rect x="0.000000" y="0.205941" width="0.176238" height="0.176238" fill="white" /><rect x="0.000000" y="0.411881" width="0.176238" height="0.176238" fill="white" /><rect x="0.000000" y="0.617822" width="0.176238" height="0.176238" fill="white" /><rect x="0.000000" y="0.823762" width="0.176238" height="0.176238" fill="white" /><rect x="0.205941" y="0.000000" width="0.176238" height="0.176238" fill="white" /><rect x="0.205941" y="0.205941" width="0.176238" height="0.176238" fill="white" /><rect x="0.205941" y="0.411881" width="0.176238" height="0.176238" fill="white" /><rect x="0.205941" y="0.617822" width="0.176238" height="0.176238" fill="white" /><rect x="0.205941" y="0.823762" width="0.176238" height="0.176238" fill="white" /><rect x="0.411881" y="0.000000" width="0.176238" height="0.176238" fill="white" /><rect x="0.411881" y="0.205941" width="0.176238" height="0.176238" fill="white" /><rect x="0.411881" y="0.411881" width="0.176238" height="0.176238" fill="white" /><rect x="0.411881" y="0.617822" width="0.176238" height="0.176238" fill="white" /><rect x="0.411881" y="0.823762" width="0.176238" height="0.176238" fill="white" /><rect x="0.617822" y="0.000000" width="0.176238" height="0.176238" fill="white" /><rect x="0.617822" y="0.205941" width="0.176238" height="0.176238" fill="white" /><rect x="0.617822" y="0.411881" width="0.176238" height="0.176238" fill="white" /><rect x="0.617822" y="0.617822" width="0.176238" height="0.176238" fill="white" /><rect x="0.617822" y="0.823762" width="0.176238" height="0.176238" fill="white" /><rect x="0.823762" y="0.000000" width="0.176238" height="0.176238" fill="white" /><rect x="0.823762" y="0.205941" width="0.176238" height="0.176238" fill="white" /><rect x="0.823762" y="0.411881" width="0.176238" height="0.176238" fill="white" /><rect x="0.823762" y="0.617822" width="0.176238" height="0.176238" fill="white" /><rect x="0.823762" y="0.823762" width="0.176238" height="0.176238" fill="white" /></svg>