<!DOCTYPE svg PUBLIC "-//W3C//DTD SVG 1.0//EN" "http://www.w3.org/TR/2001/REC-SVG-20010904/DTD/svg10.dtd"><svg xmlns="http://www.w3.org/2000/svg" xmlns:xlink="http://www.w3.org/1999/xlink" viewBox="0 0 1 1"><rect x="0.000000" y="0.000000" width="0.125884" height="0.125884" fill="white" /><rect x="0.000000" y="0.145686" width="0.125884" height="0.125884" fill="white" /><rect x="0.000000" y="0.291372" width="0.125884" height="0.125884" fill="white" /><rect x="0.000000" y="0.437058" width="0.125884" height="0.125884" fill="white" /><rect x="0.000000" y="0.582744" width="0.125884" height="0.125884" fill="white" /><rect x="0.000000" y="0.728430" width="0.125884" height="0.125884" fill="white" /><rect x="0.000000" y="0.874116" width="0.125884" height="0.125884" fill="white" /><rect x="0.145686" y="0.000000" width="0.125884" height="0.125884" fill="white" /><rect x="0.145686" y="0.145686" width="0.125884" height="0.125884" fill="white" /><rect x="0.145686" y="0.291372" width="0.125884" height="0.125884" fill="white" /><rect x="0.145686" y="0.437058" width="0.125884" height="0.125884" fill="white" /><rect x="0.145686" y="0.582744" width="0.125884" height="0.125884" fill="white" /><rect x="0.145686" y="0.728430" width="0.125884" height="0.125884" fill="white" /><rect x="0.145686" y="0.874116" width="0.125884" height="0.125884" fill="white" /><rect x="0.291372" y="0.000000" width="0.125884" height="0.125884" fill="white" /><rect x="0.291372" y="0.145686" width="0.125884" height="0.125884" fill="white" /><rect x="0.291372" y="0.291372" width="0.125884" height="0.125884" fill="white" /><rect x="0.291372" y="0.437058" width="0.125884" height="0.125884" fill="white" /><rect x="0.291372" y="0.582744" width="0.125884" height="0.125884" fill="white" /><rect x="0.291372" y="0.728430" width="0.125884" height="0.125884" fill="white" /><rect x="0.291372" y="0.874116" width="0.125884" height="0.125884" fill="white" /><rect x="0.437058" y="0.000000" width="0.125884" height="0.125884" fill="white" /><rect x="0.437058" y="0.145686" width="0.125884" height="0.125884" fill="white" /><rect x="0.437058" y="0.291372" width="0.125884" height="0.125884" fill="white" /><rect x="0.437058" y="0.437058" width="0.125884" height="0.125884" fill="white" /><rect x="0.437058" y="0.582744" width="0.125884" height="0.125884" fill="white" /><rect x="0.437058" y="0.728430" width="0.125884" height="0.125884" fill="white" /><rect x="0.437058" y="0.874116" width="0.125884" height="0.125884" fill="white" /><rect x="0.582744" y="0.000000" width="0.125884" height="0.125884" fill="white" /><rect x="0.582744" y="0.145686" width="0.125884" height="0.125884" fill="white" /><rect x="0.582744" y="0.291372" width="0.125884" height="0.125884" fill="white" /><rect x="0.582744" y="0.437058" width="0.125884" height="0.125884" fill="white" /><rect x="0.582744" y="0.582744" width="0.125884" height="0.125884" fill="white" /><rect x="0.582744" y="0.728430" width="0.125884" height="0.125884" fill="white" /><rect x="0.582744" y="0.874116" width="0.125884" height="0.125884" fill="white" /><rect x="0.728430" y="0.000000" width="0.125884" height="0.125884" fill="white" /><rect x="0.728430" y="0.145686" width="0.125884" height="0.125884" fill="white" /><rect x="0.728430" y="0.291372" width="0.125884" height="0.125884" fill="white" /><rect x="0.728430" y="0.437058" width="0.125884" height="0.125884" fill="white" /><rect x="0.728430" y="0.582744" width="0.125884" height="0.125884" fill="white" /><rect x="0.728430" y="0.728430" width="0.125884" height="0.125884" fill="white" /><rect x="0.728430" y="0.874116" width="0.125884" height="0.125884" fill="white" /><rect x="0.874116" y="0.000000" width="0.125884" height="0.125884" fill="white" /><rect x="0.874116" y="0.145686" width="0.125884" height="0.125884" fill="white" /><rect x="0.874116" y="0.291372" width="0.125884" height="0.125884" fill="white" /><rect x="0.874116" y="0.437058" width="0.125884" height="0.125884" fill="white" /><rect x="0.874116" y="0.582744" width="0.125884" height="0.125884" fill="white" /><rect x="0.874116" y="0.728430" width="0.125884" height="0.125884" fill="white" /><rect x="0.874116" y="0.874116" width="0.125884" height="0.125884" fill="white" /></svg>