<!DOCTYPE svg PUBLIC "-//W3C//DTD SVG 1.0//EN" "http://www.w3.org/TR/2001/REC-SVG-20010904/DTD/svg10.dtd"><svg xmlns="http://www.w3.org/2000/svg" xmlns:xlink="http://www.w3.org/1999/xlink" viewBox="0 0 1 1"><g class="puzzle-icon-fill" fill="white"><rect fill="inherit" x="0.000000" y="0.000000" width="0.227723" height="0.227723" /><rect fill="inherit" x="0.000000" y="0.257426" width="0.227723" height="0.227723" /><rect fill="inherit" x="0.000000" y="0.514851" width="0.227723" height="0.227723" /><rect fill="inherit" x="0.000000" y="0.772277" width="0.227723" height="0.227723" /><rect fill="inherit" x="0.257426" y="0.000000" width="0.227723" height="0.227723" /><rect fill="inherit" x="0.257426" y="0.257426" width="0.227723" height="0.227723" /><rect fill="inherit" x="0.257426" y="0.514851" width="0.227723" height="0.227723" /><rect fill="inherit" x="0.257426" y="0.772277" width="0.227723" height="0.227723" /><rect fill="inherit" x="0.514851" y="0.000000" width="0.227723" height="0.227723" /><rect fill="inherit" x="0.514851" y="0.257426" width="0.227723" height="0.227723" /><rect fill="inherit" x="0.514851" y="0.514851" width="0.227723" height="0.227723" /><rect fill="inherit" x="0.514851" y="0.772277" width="0.227723" height="0.227723" /><rect fill="inherit" x="0.772277" y="0.000000" width="0.227723" height="0.227723" /><rect fill="inherit" x="0.772277" y="0.257426" width="0.227723" height="0.227723" /><rect fill="inherit" x="0.772277" y="0.514851" width="0.227723" height="0.227723" /><rect fill="inherit" x="0.772277" y="0.772277" width="0.227723" height="0.227723" /></g></svg>