<?xml version="1.0" encoding="utf-8"?>
<svg version="1.1" xmlns="http://www.w3.org/2000/svg" xmlns:xlink="http://www.w3.org/1999/xlink" viewBox="3.458222292879401 74.11794820147311 692.989287997532 520.959126458235">
  <g class="puzzle-icon-fill" fill="white">
    <path d="M112.5,100.2c0,0,103.7-25.3,136.3-25.5c5.8,0.5,28-5.7,46.4,13.3c18,18.6-2.5,57.4-2.5,57.4
	c-1.4,0.1-22.7,46.1,2.5,59.1c25.2,13,87.7,27.7,99.5-4.1c11.9-32.1-1.2-47.8-8-65.7s-3-45.9,38.9-46s109.2,4.8,131.9,10.8
	c22.7,6,12.4,25.5,12.4,25.5s-20,74.3-17.3,92.1c2.7,17.8-1.6,45.9,21.5,56.8c20.2,9.5,34.4-8.8,42.2-11.4c0,0,41.4-22.5,70.4,31.1
	c29,53.7-15.3,94.5-22,97.5c0,0-32.7,15.7-65.3-11.7c-32.7-27.4-52.3,22.9-52.6,30c-0.3,6.5,2.4,65.5,31.3,108.3
	c28.3,42,9.2,41.2-1.9,48.1c-8.6,7.3-86,38.5-133.8,26.6c-47.8-12-52-49.7-47.3-59.8c4.8-10.1,34.2-41.6,33.7-61.3
	c-0.4-18.7-10.4-59.3-102.2-40.6c-86.1,17.5-20.7,79.3-22.8,111.8c-5.2,14.3-5.4,34.1-58.2,39.8c-46.8,5-96.9-5.5-112.6-8.8
	c0,0-20.7-3.8-13.8-35.6c6.9-31.7,25.7-90.4,30.8-98.3c6.1-9.5,15.6-64.3-33.5-70.1c0,0-21.2-0.8-39.8,16.5
	c-18.6,17.3-62.1,0.8-69.3-20.2c-7.2-21-5.8-80.2,14.9-94.8s28.4-18.3,60.8-4.2c32.4,14,51.6-32.3,50.5-30.3c2.1,0,2-42-9.3-72
	c-11.1-29.6-17.3-49.2-17.3-49.2S101.9,106.1,112.5,100.2z" />
  </g>
</svg>
